<svg width="50" height="50" viewBox="0 0 50 50" fill="none" xmlns="http://www.w3.org/2000/svg">
<path d="M21.8752 25.9219L17.8284 21.875L15.6252 24.0781L21.8752 30.3281L34.3752 17.8281L32.1721 15.625L21.8752 25.9219Z" fill="#BE1B7D"/>
<path d="M25.0003 46.875L15.3503 41.7297C12.599 40.2664 10.2982 38.0814 8.695 35.4092C7.09176 32.7371 6.2466 29.6787 6.25026 26.5625V6.25C6.25026 5.4212 6.5795 4.62634 7.16555 4.04029C7.7516 3.45424 8.54645 3.125 9.37526 3.125H40.6253C41.4541 3.125 42.2489 3.45424 42.835 4.04029C43.421 4.62634 43.7503 5.4212 43.7503 6.25V26.5625C43.7539 29.6787 42.9087 32.7371 41.3055 35.4092C39.7023 38.0814 37.4015 40.2664 34.6503 41.7297L25.0003 46.875ZM9.37526 6.25V26.5625C9.37352 29.112 10.0657 31.6139 11.3776 33.8C12.6894 35.9861 14.5716 37.774 16.8221 38.9719L25.0003 43.3328L33.1784 38.9734C35.4292 37.7754 37.3115 35.9873 38.6233 33.8009C39.9352 31.6145 40.6273 29.1123 40.6253 26.5625V6.25H9.37526Z" fill="#BE1B7D"/>
</svg>
