<svg width="50" height="50" viewBox="0 0 50 50" fill="none" xmlns="http://www.w3.org/2000/svg">
<path d="M2.0835 45.8333C2.0835 46.9583 3.021 47.9166 4.16683 47.9166H31.2502C32.4168 47.9166 33.3335 46.9583 33.3335 45.8333V43.7499H2.0835V45.8333ZM17.7085 18.7499C9.896 18.7499 2.0835 22.9166 2.0835 31.2499H33.3335C33.3335 22.9166 25.521 18.7499 17.7085 18.7499ZM7.54183 27.0833C9.85433 23.8541 14.771 22.9166 17.7085 22.9166C20.646 22.9166 25.5627 23.8541 27.8752 27.0833H7.54183ZM2.0835 35.4166H33.3335V39.5833H2.0835V35.4166ZM37.5002 10.4166V2.08325H33.3335V10.4166H22.9168L23.396 14.5833H43.3127L40.396 43.7499H37.5002V47.9166H41.0835C42.8335 47.9166 44.271 46.5624 44.4793 44.8541L47.9168 10.4166H37.5002Z" fill="#BE1B7D"/>
</svg>
