<svg width="50" height="50" viewBox="0 0 50 50" fill="none" xmlns="http://www.w3.org/2000/svg">
<path d="M6.25024 25H25.0002V28.125H6.25024V25ZM3.12524 17.1875H18.7502V20.3125H3.12524V17.1875Z" fill="#BE1B7D"/>
<path d="M46.7487 25.9469L42.0612 15.0094C41.9407 14.7284 41.7404 14.4889 41.4852 14.3206C41.23 14.1523 40.931 14.0625 40.6252 14.0625H35.9377V10.9375C35.9377 10.5231 35.7731 10.1257 35.4801 9.83265C35.1871 9.53962 34.7896 9.375 34.3752 9.375H9.37522V12.5H32.8127V32.1188C32.1012 32.5327 31.4784 33.0832 30.9802 33.7385C30.482 34.3939 30.1182 35.1412 29.9096 35.9375H20.0908C19.7105 34.4646 18.8061 33.181 17.5471 32.3272C16.2881 31.4734 14.7609 31.1081 13.2518 31.2998C11.7427 31.4915 10.3553 32.227 9.34971 33.3684C8.34411 34.5098 7.78931 35.9788 7.78931 37.5C7.78931 39.0212 8.34411 40.4902 9.34971 41.6316C10.3553 42.773 11.7427 43.5085 13.2518 43.7002C14.7609 43.8919 16.2881 43.5266 17.5471 42.6728C18.8061 41.819 19.7105 40.5354 20.0908 39.0625H29.9096C30.2495 40.4035 31.0268 41.5929 32.1186 42.4425C33.2104 43.292 34.5543 43.7533 35.9377 43.7533C37.3211 43.7533 38.665 43.292 39.7568 42.4425C40.8486 41.5929 41.6259 40.4035 41.9658 39.0625H45.3127C45.7271 39.0625 46.1246 38.8979 46.4176 38.6049C46.7106 38.3118 46.8752 37.9144 46.8752 37.5V26.5625C46.8752 26.3508 46.8321 26.1414 46.7487 25.9469ZM14.0627 40.625C13.4447 40.625 12.8405 40.4417 12.3266 40.0983C11.8127 39.755 11.4121 39.2669 11.1756 38.6959C10.9391 38.1249 10.8772 37.4965 10.9978 36.8903C11.1183 36.2842 11.416 35.7273 11.853 35.2903C12.29 34.8533 12.8469 34.5556 13.4531 34.435C14.0593 34.3145 14.6876 34.3764 15.2586 34.6129C15.8296 34.8494 16.3177 35.2499 16.6611 35.7638C17.0044 36.2777 17.1877 36.8819 17.1877 37.5C17.1877 38.3288 16.8585 39.1237 16.2724 39.7097C15.6864 40.2958 14.8915 40.625 14.0627 40.625ZM35.9377 17.1875H39.594L42.944 25H35.9377V17.1875ZM35.9377 40.625C35.3197 40.625 34.7155 40.4417 34.2016 40.0983C33.6877 39.755 33.2871 39.2669 33.0506 38.6959C32.8141 38.1249 32.7522 37.4965 32.8728 36.8903C32.9933 36.2842 33.291 35.7273 33.728 35.2903C34.165 34.8533 34.7219 34.5556 35.3281 34.435C35.9343 34.3145 36.5626 34.3764 37.1336 34.6129C37.7046 34.8494 38.1927 35.2499 38.5361 35.7638C38.8794 36.2777 39.0627 36.8819 39.0627 37.5C39.0627 38.3288 38.7335 39.1237 38.1474 39.7097C37.5614 40.2958 36.7665 40.625 35.9377 40.625ZM43.7502 35.9375H41.9658C41.6217 34.5991 40.8431 33.4128 39.7522 32.5645C38.6612 31.7162 37.3197 31.2538 35.9377 31.25V28.125H43.7502V35.9375Z" fill="#BE1B7D"/>
</svg>
