<svg width="50" height="50" viewBox="0 0 50 50" fill="none" xmlns="http://www.w3.org/2000/svg">
<path d="M38.8628 18.1084C37.0975 18.1084 35.5725 17.5452 34.2878 16.4188C33.0031 15.2924 32.2378 13.8792 31.992 12.1792H17.9566C17.7344 13.6917 17.0941 14.9834 16.0357 16.0542C14.976 17.1279 13.6913 17.7758 12.1816 17.998V31.9918C13.8788 32.2376 15.2913 33.0029 16.4191 34.2876C17.5469 35.5723 18.11 37.0973 18.1087 38.8626C18.1087 40.807 17.433 42.4549 16.0816 43.8063C14.7302 45.1577 13.0823 45.8334 11.1378 45.8334C9.19338 45.8334 7.54546 45.1577 6.19408 43.8063C4.84269 42.4549 4.16699 40.807 4.16699 38.8626C4.16699 37.0973 4.73088 35.5723 5.85866 34.2876C6.98644 33.0029 8.39894 32.2376 10.0962 31.9918V17.998C8.39755 17.7522 6.98505 16.9869 5.85866 15.7022C4.73227 14.4174 4.16838 12.8966 4.16699 11.1397C4.16699 9.19522 4.84269 7.54661 6.19408 6.19383C7.54546 4.84244 9.18019 4.16675 11.0982 4.16675C12.8552 4.16675 14.376 4.73064 15.6607 5.85841C16.9455 6.98619 17.7114 8.398 17.9587 10.0938H31.9941C32.2399 8.39522 33.0052 6.98272 34.2899 5.85633C35.5746 4.72994 37.0989 4.16675 38.8628 4.16675C40.7795 4.16675 42.4205 4.84939 43.7857 6.21466C45.151 7.57994 45.8337 9.22092 45.8337 11.1376C45.8337 13.082 45.151 14.7299 43.7857 16.0813C42.4205 17.4327 40.7795 18.1084 38.8628 18.1084ZM38.8628 45.8334C36.9184 45.8334 35.2705 45.1577 33.9191 43.8063C32.5677 42.4549 31.892 40.8202 31.892 38.9022C31.892 36.9577 32.5677 35.3036 33.9191 33.9397C35.2705 32.5758 36.9184 31.8931 38.8628 31.8917C40.8073 31.8904 42.4552 32.573 43.8066 33.9397C45.158 35.3063 45.8337 36.9605 45.8337 38.9022C45.8337 40.8188 45.158 42.4536 43.8066 43.8063C42.4552 45.1577 40.8073 45.8334 38.8628 45.8334Z" fill="#BE1B7D"/>
</svg>
